<?xml version="1.0" encoding="UTF-8"?><svg id="Layer_1" xmlns="http://www.w3.org/2000/svg" viewBox="0 0 416.11 85.97"><defs><style>.cls-1{fill:#a663cc;}</style></defs><g><path class="cls-1" d="M34.28,71.22c-5.71,4.61-12.04,6.91-18.98,6.91-7.92,0-12.81-2.21-14.65-6.63-.43-1.04-.65-2.26-.65-3.64s.71-2.87,2.12-4.47c2.21-2.52,5.28-3.78,9.21-3.78,2.64,0,5.3,.48,7.97,1.43,2.67,.95,7.42,3.24,14.24,6.86,3.07-2.95,6.14-6.88,9.21-11.79,3.07-4.91,5.73-9.66,7.97-14.24,2.24-4.58,4.98-9.57,8.2-14.97,3.23-5.4,6.43-9.89,9.63-13.45-6.88-4.11-14.19-6.17-21.93-6.17-3.19,0-6.45,.34-9.77,1.01-9.52,2.03-16.77,6.17-21.75,12.44-3.07,3.81-4.61,7.43-4.61,10.87,0,4.67,2.24,7.71,6.73,9.12,1.6,.43,2.98,.65,4.15,.65s2.47-.18,3.92-.55c1.44-.37,2.87-1.23,4.28-2.58,2.7-2.7,4.15-5.22,4.33-7.56,.06-.55,.41-.75,1.06-.6,.65,.15,.91,.63,.78,1.43-.61,4.48-2.98,7.89-7.09,10.23-2.52,1.35-5.04,2.03-7.56,2.03l-4.79-.83c-4.67-1.6-7.74-4.58-9.21-8.94-.61-1.66-.92-3.32-.92-4.98,0-3.38,1.26-6.73,3.78-10.04,5.4-7.25,14.99-11.89,28.75-13.91,2.7-.37,5.37-.55,8.02-.55,8.54,0,16.68,2.03,24.42,6.08,2.4-2.76,4.61-4.87,6.63-6.31,2.03-1.44,3.65-2.17,4.88-2.17,.68,0,1.07,.14,1.2,.41,.12,.28,.11,.49-.05,.65s-.35,.23-.6,.23c-1.04,0-2.4,1.11-4.05,3.32-1.66,2.21-3.01,4.27-4.05,6.17,6.57,4.36,11.58,9.95,15.02,16.77,2.76,5.47,4.15,11.43,4.15,17.88,0,7.99-1.9,14.34-5.71,19.07-3.13,3.87-6.94,6.6-11.43,8.2-5.34,1.9-10.63,2.86-15.85,2.86-10.57,0-19.57-2.15-27-6.45Zm-3.13-1.47c-7.19-3.44-11.73-5.5-13.64-6.17-1.9-.68-3.76-1.01-5.57-1.01s-3.26,.68-4.33,2.03c-1.08,1.35-1.61,2.57-1.61,3.64s.24,2.1,.74,3.09c1.29,2.64,3.93,3.96,7.92,3.96,5.9,0,11.39-1.84,16.49-5.53Zm5.34-.18c6.2,3.69,13.48,5.53,21.84,5.53,9.71,0,17.44-2.76,23.22-8.29,4.61-4.48,6.91-10.69,6.91-18.61,0-5.65-1.11-10.96-3.32-15.94-2.76-6.33-6.85-11.61-12.25-15.85-1.78,2.76-5.21,8.34-10.27,16.72s-9.35,15.19-12.85,20.41c-3.5,5.22-6.27,8.92-8.29,11.1-2.03,2.18-3.69,3.82-4.98,4.93Z"/><path class="cls-1" d="M110.84,37.59c0,2.76-1.75,5.38-5.25,7.83,1.23,.06,2.87,.09,4.93,.09s4.65-.15,7.79-.46c.12,.18,.18,.68,.18,1.47s-.37,1.98-1.11,3.55-1.4,2.92-1.98,4.05c-.58,1.14-1.14,2.21-1.66,3.23-.52,1.01-1.11,2.26-1.75,3.73-.65,1.47-1.18,2.83-1.61,4.05-1.54,4.67-1.29,7,.74,7,2.58,0,6.39-5.13,11.43-15.39,.43-.8,.78-1.11,1.06-.92,.28,.18,.42,.41,.42,.69s-.4,1.23-1.2,2.86c-.8,1.63-1.66,3.3-2.58,5.02-.92,1.72-2.37,3.72-4.33,5.99-2.34,2.83-4.58,4.24-6.73,4.24-2.4,0-4.05-1.44-4.98-4.33-.18-.55-.28-1.38-.28-2.49s.35-2.58,1.06-4.42c.71-1.84,1.83-4.08,3.36-6.73,1.53-2.64,2.4-4.19,2.58-4.65,.18-.46,.28-.91,.28-1.34,0-1.9-2.46-2.92-7.37-3.04l-1.11,2.95c-3.87,10.14-7.59,16.92-11.15,20.36-.61,.55-.92,.37-.92-.55,0-.18,.06-.4,.18-.65,3.44-4.54,6.42-9.92,8.94-16.12,2.52-6.2,4.27-12.1,5.25-17.69,.37-1.9,1.23-2.86,2.58-2.86s2.33,.86,2.95,2.58c.18,.55,.28,1.2,.28,1.94Z"/><path class="cls-1" d="M126.42,60.35c-.86,2.09-1.29,4.42-1.29,7,0,1.72,.38,3.09,1.15,4.1,.77,1.01,1.86,1.52,3.27,1.52,5.59,0,10.66-5.25,15.2-15.76,.43-.98,.95-1.41,1.57-1.29,.24,.06,.37,.22,.37,.46s-.69,1.86-2.07,4.84c-1.38,2.98-2.78,5.39-4.19,7.23-3.13,4.3-7,6.45-11.61,6.45-2.46,0-4.55-.8-6.27-2.4-1.72-1.6-2.58-3.78-2.58-6.54s.66-5.7,1.98-8.8c1.32-3.1,3.12-5.99,5.39-8.66,2.27-2.67,4.88-4.62,7.83-5.85,1.41-.61,2.76-.92,4.05-.92s2.49,.37,3.59,1.11c1.04,.86,1.57,1.81,1.57,2.86,0,3.69-2.21,7.22-6.63,10.6-1.35,1.04-3.26,1.98-5.71,2.81-2.46,.83-4.33,1.24-5.62,1.24Zm15.48-14.74c0-1.23-.49-1.84-1.47-1.84-1.72,0-4.33,2.12-7.83,6.36-2.09,2.58-3.93,5.47-5.53,8.66,1.04,0,2.56-.37,4.56-1.11,2-.74,3.73-1.72,5.21-2.95,3.38-2.89,5.07-5.93,5.07-9.12Z"/><path class="cls-1" d="M168.34,57.08c-2.03,3.9-3.24,6.82-3.64,8.75-.4,1.93-.6,3.5-.6,4.7s.46,1.8,1.38,1.8c1.17,0,2.61-1.07,4.33-3.23,2.52-3.13,5.01-7.22,7.46-12.25,.24-.55,.52-.86,.83-.92,.49-.18,.74,0,.74,.55,0,.31-.09,.68-.28,1.11-5.65,11.43-10.41,17.14-14.28,17.14-1.78,0-3.22-.86-4.33-2.58-.55-.92-.83-2.15-.83-3.69s.31-3.41,.92-5.62c-4.92,7.92-9.15,11.89-12.72,11.89-.98,0-1.87-.31-2.67-.92-1.84-1.29-2.76-3.5-2.76-6.63,0-6.02,2.61-12.13,7.83-18.34,2.95-3.44,6.57-5.68,10.87-6.73,1.17-.31,2.27-.46,3.32-.46,2.82,0,5.22,.98,7.19,2.95,.61,.68,.8,1.32,.55,1.94-.25,.61-.77,.86-1.57,.74-.68-2.21-2.15-3.32-4.42-3.32-2.64,0-5.9,2.09-9.77,6.27-2.21,2.46-4.27,5.34-6.17,8.66-2.4,3.99-3.59,7.19-3.59,9.58s.77,3.59,2.3,3.59c3.69,0,8.51-5.65,14.47-16.95,1.17-2.27,2.15-3.82,2.95-4.65,.8-.83,1.81-1.24,3.04-1.24,.24,0,.88,.09,1.89,.28,1.01,.18,1.77,.22,2.26,.09-1.11,1.11-2.67,3.61-4.7,7.51Z"/><path class="cls-1" d="M220.86,44.32c-7.5,13.33-11.24,21.93-11.24,25.8,0,1.72,.58,2.58,1.75,2.58,1.47,0,3.16-1.11,5.07-3.32,2.89-3.5,5.4-7.71,7.55-12.62,.37-.86,.74-1.2,1.11-1.01,.37,.18,.55,.43,.55,.74s-.31,1.08-.92,2.3c-.61,1.23-1.11,2.21-1.47,2.95-.37,.74-1.18,2.15-2.44,4.24-1.26,2.09-2.33,3.62-3.22,4.61-.89,.98-2.03,1.95-3.41,2.9-1.38,.95-2.95,1.43-4.7,1.43s-3.24-.86-4.47-2.58c-.55-.8-.83-1.89-.83-3.27s.31-3.06,.92-5.02c.61-1.97,2.3-5.16,5.07-9.58,.67-1.11,1.01-1.98,1.01-2.63s-.51-.97-1.52-.97-2.84,1.23-5.48,3.69c-2.64,2.46-5.42,5.77-8.34,9.95-2.92,4.18-4.65,7.53-5.21,10.04-1.04,0-1.81-.43-2.3-1.29-.49-.86-.74-1.6-.74-2.21,0-2.52,1.69-7.31,5.07-14.37,1.11-2.33,1.69-3.92,1.75-4.75,.06-.83-.05-1.26-.32-1.29-.28-.03-.66,.08-1.15,.32-1.11,.55-2.8,1.9-5.07,4.05-4.3,3.93-8.54,9.92-12.71,17.97-.31,.68-.69,1.09-1.15,1.24-.46,.15-1.37,.26-2.72,.32s-2.24,.21-2.67,.46c1.11-2.15,3.04-6.17,5.8-12.07,4.98-10.56,8.29-16.65,9.95-18.24,.74-.74,1.75-1.11,3.04-1.11,.24,0,.88,.09,1.89,.28,1.01,.18,1.76,.22,2.26,.09-2.27,1.23-5.99,7-11.15,17.32,2.89-3.56,4.96-5.9,6.22-7,1.26-1.11,2.2-1.94,2.81-2.49s1.09-.98,1.43-1.29c.34-.31,.83-.75,1.47-1.34,.64-.58,1.14-1.01,1.47-1.29,.34-.28,.81-.66,1.43-1.15,.61-.49,1.09-.81,1.43-.97,.34-.15,.8-.41,1.38-.78,.58-.37,1.01-.55,1.29-.55s.66-.08,1.15-.23c.49-.15,.83-.11,1.01,.14,1.23,.49,1.84,1.26,1.84,2.3,0,.92-1.05,3.29-3.13,7.09-2.09,3.81-3.44,6.33-4.05,7.56,2.7-3.38,5.28-6.16,7.74-8.34,2.46-2.18,5.36-4.19,8.71-6.04,3.35-1.84,5.79-2.76,7.33-2.76,.37,0,.67,.06,.92,.18Z"/><path class="cls-1" d="M298.9,70.21c0,5.83,2.36,8.75,7.09,8.75,4.42,0,9.89-2.61,16.4-7.83,7.12-5.65,12.01-11.61,14.65-17.88,3.01-7.06,4.51-13.08,4.51-18.06s-1-8.72-3-11.24c-2-2.52-4.75-3.78-8.25-3.78-.8,0-1.63,.06-2.49,.18-1.47,.37-2.57,.55-3.27,.55s-1.06-.18-1.06-.55c0-.55,.57-1.07,1.7-1.57,1.14-.49,2-.74,2.58-.74h2.72c3.5,0,6.71,1.38,9.63,4.15,2.92,2.76,4.81,6.82,5.67,12.16,.18,1.29,.28,2.61,.28,3.96,0,4.55-1.08,9.71-3.22,15.48-3.01,7.62-8.19,14.1-15.53,19.44-7.34,5.34-14.08,8.02-20.23,8.02s-10.32-2.95-11.79-8.85c-.43-1.53-.64-3.62-.64-6.27s.64-6.08,1.93-10.32c-3.32,5.53-7.62,11.52-12.9,17.97-2.89,3.44-5.84,6.3-8.85,8.57-3.19,2.4-5.9,3.59-8.11,3.59-4.36,0-6.54-2.64-6.54-7.92,0-6.2,4.02-18.86,12.07-37.96,5.04-12.16,7.56-21.28,7.56-27.37,0-3.93-1.18-6.65-3.55-8.15-2.37-1.5-5.18-2.26-8.43-2.26-1.41,0-2.89,.15-4.42,.46-10.87,2.21-20.52,8.08-28.93,17.6-4.18,4.79-7.06,9.38-8.66,13.78-1.6,4.39-2.5,7.65-2.72,9.77-.22,2.12-.32,3.87-.32,5.25s.26,2.96,.78,4.75c.52,1.78,1.43,3.44,2.72,4.98,2.4,2.76,5.74,4.15,10.04,4.15,7.12,0,12.78-3.72,16.95-11.15,2.15-3.81,3.22-7.25,3.22-10.32,0-5.04-2.24-7.56-6.73-7.56-.74,0-1.66,.09-2.76,.28-1.11,.18-1.63,.06-1.57-.37,.06-.43,.89-.89,2.49-1.38,1.6-.49,3.19-.74,4.79-.74,3.19,0,5.53,1.23,7,3.69,.92,1.54,1.38,3.35,1.38,5.44s-.58,4.52-1.75,7.28c-3.13,7.19-8.75,12.47-16.86,15.85-2.15,.92-4.15,1.38-5.99,1.38-6.02,0-10.81-2.15-14.37-6.45-2.52-2.95-4.11-6.76-4.79-11.43-.12-.92-.18-1.87-.18-2.86,0-3.93,1-8.18,2.99-12.76,2-4.58,4.71-8.83,8.16-12.76,3.44-3.93,7.19-7.22,11.24-9.86,4.05-2.64,8.32-4.85,12.81-6.63,4.67-1.78,9-2.67,12.99-2.67s7.62,.61,10.87,1.84c5.9,2.58,8.85,7.53,8.85,14.83,0,6.02-2.06,13.7-6.17,23.04-2.83,6.33-5.53,13.12-8.11,20.36-3.69,10.32-5.53,17.05-5.53,20.18,0,2.21,.77,3.32,2.3,3.32,.8,0,1.75-.37,2.86-1.11,3.32-1.97,6.94-5.68,10.87-11.15,3.93-5.47,8.02-11.82,12.25-19.07,4.24-7.25,7.25-12.1,9.03-14.56,1.78-2.46,3.32-3.69,4.61-3.69,.31,0,.61,.06,.92,.18,.8,.43,1.2,1.26,1.2,2.49s-.17,2.33-.51,3.32c-.34,.98-1.92,4.9-4.75,11.75-2.83,6.85-4.39,11.36-4.7,13.54-.31,2.18-.46,3.82-.46,4.93Z"/><path class="cls-1" d="M351.88,60.35c-.86,2.09-1.29,4.42-1.29,7,0,1.72,.38,3.09,1.15,4.1,.77,1.01,1.86,1.52,3.27,1.52,5.59,0,10.66-5.25,15.2-15.76,.43-.98,.95-1.41,1.57-1.29,.24,.06,.37,.22,.37,.46s-.69,1.86-2.07,4.84c-1.38,2.98-2.78,5.39-4.19,7.23-3.13,4.3-7,6.45-11.61,6.45-2.46,0-4.55-.8-6.27-2.4-1.72-1.6-2.58-3.78-2.58-6.54s.66-5.7,1.98-8.8c1.32-3.1,3.12-5.99,5.39-8.66,2.27-2.67,4.88-4.62,7.83-5.85,1.41-.61,2.76-.92,4.05-.92s2.49,.37,3.59,1.11c1.04,.86,1.57,1.81,1.57,2.86,0,3.69-2.21,7.22-6.63,10.6-1.35,1.04-3.26,1.98-5.71,2.81-2.46,.83-4.33,1.24-5.62,1.24Zm15.48-14.74c0-1.23-.49-1.84-1.47-1.84-1.72,0-4.33,2.12-7.83,6.36-2.09,2.58-3.93,5.47-5.53,8.66,1.04,0,2.56-.37,4.56-1.11,2-.74,3.73-1.72,5.21-2.95,3.38-2.89,5.07-5.93,5.07-9.12Z"/><path class="cls-1" d="M389.94,69.2c0,1.97,.8,2.95,2.4,2.95,2.89,0,6.73-4.82,11.52-14.47,.18-.37,.35-.74,.51-1.11s.4-.61,.74-.74c.34-.12,.57-.05,.69,.23,.12,.28,.06,.72-.18,1.34-4.92,11.43-9.89,17.14-14.93,17.14-1.66,0-2.98-.74-3.96-2.21-.98-1.47-1.47-2.93-1.47-4.38s.15-2.78,.46-4.01c-3.56,5.9-6.63,9.25-9.21,10.04-.74,.31-1.46,.46-2.17,.46s-1.4-.09-2.07-.28c-3.01-.8-4.52-3.19-4.52-7.19,0-2.7,.69-5.7,2.07-8.98,1.38-3.29,3.33-6.43,5.85-9.44,2.52-3.01,5.56-5.04,9.12-6.08,1.29-.43,2.81-.65,4.56-.65s3.7,.55,5.85,1.66c4.18-7.86,7.74-15.14,10.69-21.84,.86-2.03,1.71-3.33,2.53-3.92,.83-.58,1.6-.88,2.3-.88h1.29c.15,0,.74,.08,1.75,.23,1.01,.15,1.8,.2,2.35,.14-1.41,1.29-5.16,7.56-11.24,18.8-7.74,14.37-12.41,23.96-14,28.75-.62,1.78-.92,3.26-.92,4.42Zm4.52-24.23c-.8-.8-1.92-1.2-3.36-1.2s-3.46,1.08-6.04,3.23c-4.12,3.44-7.53,7.68-10.23,12.72-1.78,3.32-2.67,6.05-2.67,8.2,0,.98,.2,1.87,.6,2.67,.4,.8,1.03,1.2,1.89,1.2,2.09,0,4.67-2.15,7.74-6.45,3.07-4.3,7.1-11.09,12.07-20.36Z"/></g><path class="cls-1" d="M225.63,56.67l-1.37-.44,2.25-3.69c2.23-4.34,4.7-8.81,8.19-12.41,3.05-3.14,8.81-6.3,13.01-7.52l-.18,1.6c-2.16,.19-9.18,3.61-12.11,6.62-3.39,3.49-5.66,7.91-7.86,12.19l-1.94,3.66Z"/></svg>