<?xml version="1.0" encoding="utf-8"?>
<!-- Generator: Adobe Illustrator 26.3.1, SVG Export Plug-In . SVG Version: 6.00 Build 0)  -->
<svg version="1.1" id="Layer_1" xmlns="http://www.w3.org/2000/svg" xmlns:xlink="http://www.w3.org/1999/xlink" x="0px" y="0px"
	 viewBox="0 0 416.1 86" style="enable-background:new 0 0 416.1 86;" xml:space="preserve">
<style type="text/css">
	.st0{fill:#A663CC;}
</style>
<g>
	<path class="st0" d="M34.3,71.2c-5.7,4.6-12,6.9-19,6.9c-7.9,0-12.8-2.2-14.6-6.6c-0.4-1-0.6-2.3-0.6-3.6s0.7-2.9,2.1-4.5
		c2.2-2.5,5.3-3.8,9.2-3.8c2.6,0,5.3,0.5,8,1.4s7.4,3.2,14.2,6.9c3.1-2.9,6.1-6.9,9.2-11.8s5.7-9.7,8-14.2s5-9.6,8.2-15
		c3.2-5.4,6.4-9.9,9.6-13.4c-6.9-4.1-14.2-6.2-21.9-6.2c-3.2,0-6.5,0.3-9.8,1c-9.5,2-16.8,6.2-21.8,12.4c-3.1,3.8-4.6,7.4-4.6,10.9
		c0,4.7,2.2,7.7,6.7,9.1c1.6,0.4,3,0.7,4.1,0.7s2.5-0.2,3.9-0.5c1.4-0.4,2.9-1.2,4.3-2.6c2.7-2.7,4.1-5.2,4.3-7.6
		c0.1-0.5,0.4-0.8,1.1-0.6s0.9,0.6,0.8,1.4c-0.6,4.5-3,7.9-7.1,10.2c-2.5,1.3-5,2-7.6,2l-4.8-0.8c-4.7-1.6-7.7-4.6-9.2-8.9
		c-0.6-1.7-0.9-3.3-0.9-5c0-3.4,1.3-6.7,3.8-10c5.4-7.2,15-11.9,28.8-13.9c2.7-0.4,5.4-0.6,8-0.6c8.5,0,16.7,2,24.4,6.1
		c2.4-2.8,4.6-4.9,6.6-6.3c2-1.4,3.7-2.2,4.9-2.2c0.7,0,1.1,0.1,1.2,0.4C84,2.8,84,3,83.8,3.2s-0.3,0.2-0.6,0.2
		c-1,0-2.4,1.1-4.1,3.3c-1.7,2.2-3,4.3-4.1,6.2c6.6,4.4,11.6,9.9,15,16.8c2.8,5.5,4.2,11.4,4.2,17.9c0,8-1.9,14.3-5.7,19.1
		c-3.1,3.9-6.9,6.6-11.4,8.2c-5.3,1.9-10.6,2.9-15.8,2.9C50.7,77.7,41.7,75.5,34.3,71.2L34.3,71.2z M31.1,69.8
		c-7.2-3.4-11.7-5.5-13.6-6.2c-1.9-0.7-3.8-1-5.6-1s-3.3,0.7-4.3,2C6.5,66,6,67.2,6,68.2s0.2,2.1,0.7,3.1c1.3,2.6,3.9,4,7.9,4
		C20.6,75.3,26,73.5,31.1,69.8L31.1,69.8z M36.5,69.6c6.2,3.7,13.5,5.5,21.8,5.5c9.7,0,17.4-2.8,23.2-8.3c4.6-4.5,6.9-10.7,6.9-18.6
		c0-5.7-1.1-11-3.3-15.9c-2.8-6.3-6.8-11.6-12.2-15.9c-1.8,2.8-5.2,8.3-10.3,16.7s-9.4,15.2-12.9,20.4s-6.3,8.9-8.3,11.1
		C39.4,66.8,37.8,68.5,36.5,69.6L36.5,69.6z"/>
	<path class="st0" d="M110.8,37.6c0,2.8-1.8,5.4-5.2,7.8c1.2,0.1,2.9,0.1,4.9,0.1s4.7-0.2,7.8-0.5c0.1,0.2,0.2,0.7,0.2,1.5
		s-0.4,2-1.1,3.5s-1.4,2.9-2,4c-0.6,1.1-1.1,2.2-1.7,3.2c-0.5,1-1.1,2.3-1.8,3.7c-0.7,1.5-1.2,2.8-1.6,4c-1.5,4.7-1.3,7,0.7,7
		c2.6,0,6.4-5.1,11.4-15.4c0.4-0.8,0.8-1.1,1.1-0.9c0.3,0.2,0.4,0.4,0.4,0.7s-0.4,1.2-1.2,2.9c-0.8,1.6-1.7,3.3-2.6,5
		s-2.4,3.7-4.3,6c-2.3,2.8-4.6,4.2-6.7,4.2c-2.4,0-4.1-1.4-5-4.3c-0.2-0.6-0.3-1.4-0.3-2.5s0.3-2.6,1.1-4.4c0.7-1.8,1.8-4.1,3.4-6.7
		c1.5-2.6,2.4-4.2,2.6-4.7c0.2-0.5,0.3-0.9,0.3-1.3c0-1.9-2.5-2.9-7.4-3l-1.1,3c-3.9,10.1-7.6,16.9-11.2,20.4
		c-0.6,0.6-0.9,0.4-0.9-0.6c0-0.2,0.1-0.4,0.2-0.7c3.4-4.5,6.4-9.9,8.9-16.1c2.5-6.2,4.3-12.1,5.2-17.7c0.4-1.9,1.2-2.9,2.6-2.9
		s2.3,0.9,2.9,2.6C110.7,36.2,110.8,36.8,110.8,37.6L110.8,37.6z"/>
	<path class="st0" d="M126.4,60.3c-0.9,2.1-1.3,4.4-1.3,7c0,1.7,0.4,3.1,1.2,4.1c0.8,1,1.9,1.5,3.3,1.5c5.6,0,10.7-5.2,15.2-15.8
		c0.4-1,0.9-1.4,1.6-1.3c0.2,0.1,0.4,0.2,0.4,0.5s-0.7,1.9-2.1,4.8s-2.8,5.4-4.2,7.2c-3.1,4.3-7,6.4-11.6,6.4
		c-2.5,0-4.6-0.8-6.3-2.4c-1.7-1.6-2.6-3.8-2.6-6.5s0.7-5.7,2-8.8s3.1-6,5.4-8.7c2.3-2.7,4.9-4.6,7.8-5.8c1.4-0.6,2.8-0.9,4.1-0.9
		s2.5,0.4,3.6,1.1c1,0.9,1.6,1.8,1.6,2.9c0,3.7-2.2,7.2-6.6,10.6c-1.4,1-3.3,2-5.7,2.8C129.6,59.9,127.7,60.3,126.4,60.3z
		 M141.9,45.6c0-1.2-0.5-1.8-1.5-1.8c-1.7,0-4.3,2.1-7.8,6.4c-2.1,2.6-3.9,5.5-5.5,8.7c1,0,2.6-0.4,4.6-1.1s3.7-1.7,5.2-3
		C140.2,51.8,141.9,48.8,141.9,45.6L141.9,45.6z"/>
	<path class="st0" d="M168.3,57.1c-2,3.9-3.2,6.8-3.6,8.8s-0.6,3.5-0.6,4.7s0.5,1.8,1.4,1.8c1.2,0,2.6-1.1,4.3-3.2
		c2.5-3.1,5-7.2,7.5-12.2c0.2-0.5,0.5-0.9,0.8-0.9c0.5-0.2,0.7,0,0.7,0.5c0,0.3-0.1,0.7-0.3,1.1c-5.6,11.4-10.4,17.1-14.3,17.1
		c-1.8,0-3.2-0.9-4.3-2.6c-0.6-0.9-0.8-2.2-0.8-3.7s0.3-3.4,0.9-5.6c-4.9,7.9-9.1,11.9-12.7,11.9c-1,0-1.9-0.3-2.7-0.9
		c-1.8-1.3-2.8-3.5-2.8-6.6c0-6,2.6-12.1,7.8-18.3c2.9-3.4,6.6-5.7,10.9-6.7c1.2-0.3,2.3-0.5,3.3-0.5c2.8,0,5.2,1,7.2,3
		c0.6,0.7,0.8,1.3,0.6,1.9c-0.2,0.6-0.8,0.9-1.6,0.7c-0.7-2.2-2.1-3.3-4.4-3.3c-2.6,0-5.9,2.1-9.8,6.3c-2.2,2.5-4.3,5.3-6.2,8.7
		c-2.4,4-3.6,7.2-3.6,9.6s0.8,3.6,2.3,3.6c3.7,0,8.5-5.7,14.5-17c1.2-2.3,2.1-3.8,2.9-4.7s1.8-1.2,3-1.2c0.2,0,0.9,0.1,1.9,0.3
		c1,0.2,1.8,0.2,2.3,0.1C171.9,50.7,170.4,53.2,168.3,57.1L168.3,57.1z"/>
	<path class="st0" d="M220.9,44.3c-7.5,13.3-11.2,21.9-11.2,25.8c0,1.7,0.6,2.6,1.8,2.6c1.5,0,3.2-1.1,5.1-3.3
		c2.9-3.5,5.4-7.7,7.6-12.6c0.4-0.9,0.7-1.2,1.1-1c0.4,0.2,0.6,0.4,0.6,0.7s-0.3,1.1-0.9,2.3c-0.6,1.2-1.1,2.2-1.5,3
		c-0.4,0.7-1.2,2.2-2.4,4.2c-1.3,2.1-2.3,3.6-3.2,4.6c-0.9,1-2,1.9-3.4,2.9c-1.4,0.9-2.9,1.4-4.7,1.4s-3.2-0.9-4.5-2.6
		c-0.6-0.8-0.8-1.9-0.8-3.3s0.3-3.1,0.9-5c0.6-2,2.3-5.2,5.1-9.6c0.7-1.1,1-2,1-2.6s-0.5-1-1.5-1s-2.8,1.2-5.5,3.7s-5.4,5.8-8.3,9.9
		s-4.6,7.5-5.2,10c-1,0-1.8-0.4-2.3-1.3s-0.7-1.6-0.7-2.2c0-2.5,1.7-7.3,5.1-14.4c1.1-2.3,1.7-3.9,1.8-4.8c0.1-0.8-0.1-1.3-0.3-1.3
		c-0.3,0-0.7,0.1-1.1,0.3c-1.1,0.5-2.8,1.9-5.1,4c-4.3,3.9-8.5,9.9-12.7,18c-0.3,0.7-0.7,1.1-1.1,1.2c-0.5,0.2-1.4,0.3-2.7,0.3
		s-2.2,0.2-2.7,0.5c1.1-2.2,3-6.2,5.8-12.1c5-10.6,8.3-16.7,9.9-18.2c0.7-0.7,1.8-1.1,3-1.1c0.2,0,0.9,0.1,1.9,0.3
		c1,0.2,1.8,0.2,2.3,0.1c-2.3,1.2-6,7-11.1,17.3c2.9-3.6,5-5.9,6.2-7c1.3-1.1,2.2-1.9,2.8-2.5s1.1-1,1.4-1.3s0.8-0.8,1.5-1.3
		c0.6-0.6,1.1-1,1.5-1.3c0.3-0.3,0.8-0.7,1.4-1.2c0.6-0.5,1.1-0.8,1.4-1c0.3-0.2,0.8-0.4,1.4-0.8s1-0.5,1.3-0.5s0.7-0.1,1.1-0.2
		c0.5-0.2,0.8-0.1,1,0.1c1.2,0.5,1.8,1.3,1.8,2.3c0,0.9-1.1,3.3-3.1,7.1c-2.1,3.8-3.4,6.3-4.1,7.6c2.7-3.4,5.3-6.2,7.7-8.3
		s5.4-4.2,8.7-6c3.4-1.8,5.8-2.8,7.3-2.8C220.3,44.1,220.6,44.2,220.9,44.3L220.9,44.3z"/>
	<path class="st0" d="M298.9,70.2c0,5.8,2.4,8.8,7.1,8.8c4.4,0,9.9-2.6,16.4-7.8c7.1-5.7,12-11.6,14.6-17.9c3-7.1,4.5-13.1,4.5-18.1
		s-1-8.7-3-11.2s-4.8-3.8-8.2-3.8c-0.8,0-1.6,0.1-2.5,0.2c-1.5,0.4-2.6,0.5-3.3,0.5s-1.1-0.2-1.1-0.5c0-0.5,0.6-1.1,1.7-1.6
		c1.1-0.5,2-0.7,2.6-0.7h2.7c3.5,0,6.7,1.4,9.6,4.1c2.9,2.8,4.8,6.8,5.7,12.2c0.2,1.3,0.3,2.6,0.3,4c0,4.5-1.1,9.7-3.2,15.5
		c-3,7.6-8.2,14.1-15.5,19.4s-14.1,8-20.2,8s-10.3-2.9-11.8-8.8c-0.4-1.5-0.6-3.6-0.6-6.3s0.6-6.1,1.9-10.3
		c-3.3,5.5-7.6,11.5-12.9,18c-2.9,3.4-5.8,6.3-8.9,8.6c-3.2,2.4-5.9,3.6-8.1,3.6c-4.4,0-6.5-2.6-6.5-7.9c0-6.2,4-18.9,12.1-38
		c5-12.2,7.6-21.3,7.6-27.4c0-3.9-1.2-6.7-3.5-8.1s-5.2-2.3-8.4-2.3c-1.4,0-2.9,0.2-4.4,0.5c-10.9,2.2-20.5,8.1-28.9,17.6
		c-4.2,4.8-7.1,9.4-8.7,13.8c-1.6,4.4-2.5,7.7-2.7,9.8s-0.3,3.9-0.3,5.2s0.3,3,0.8,4.8c0.5,1.8,1.4,3.4,2.7,5
		c2.4,2.8,5.7,4.2,10,4.2c7.1,0,12.8-3.7,16.9-11.1c2.1-3.8,3.2-7.2,3.2-10.3c0-5-2.2-7.6-6.7-7.6c-0.7,0-1.7,0.1-2.8,0.3
		c-1.1,0.2-1.6,0.1-1.6-0.4s0.9-0.9,2.5-1.4s3.2-0.7,4.8-0.7c3.2,0,5.5,1.2,7,3.7c0.9,1.5,1.4,3.3,1.4,5.4s-0.6,4.5-1.8,7.3
		c-3.1,7.2-8.8,12.5-16.9,15.9c-2.1,0.9-4.1,1.4-6,1.4c-6,0-10.8-2.2-14.4-6.5c-2.5-3-4.1-6.8-4.8-11.4c-0.1-0.9-0.2-1.9-0.2-2.9
		c0-3.9,1-8.2,3-12.8c2-4.6,4.7-8.8,8.2-12.8c3.4-3.9,7.2-7.2,11.2-9.9s8.3-4.8,12.8-6.6c4.7-1.8,9-2.7,13-2.7s7.6,0.6,10.9,1.8
		c5.9,2.6,8.9,7.5,8.9,14.8c0,6-2.1,13.7-6.2,23c-2.8,6.3-5.5,13.1-8.1,20.4c-3.7,10.3-5.5,17.1-5.5,20.2c0,2.2,0.8,3.3,2.3,3.3
		c0.8,0,1.8-0.4,2.9-1.1c3.3-2,6.9-5.7,10.9-11.2s8-11.8,12.2-19.1c4.2-7.2,7.2-12.1,9-14.6c1.8-2.5,3.3-3.7,4.6-3.7
		c0.3,0,0.6,0.1,0.9,0.2c0.8,0.4,1.2,1.3,1.2,2.5s-0.2,2.3-0.5,3.3c-0.3,1-1.9,4.9-4.8,11.8s-4.4,11.4-4.7,13.5
		C299,67.5,298.9,69.1,298.9,70.2L298.9,70.2z"/>
	<path class="st0" d="M351.9,60.3c-0.9,2.1-1.3,4.4-1.3,7c0,1.7,0.4,3.1,1.1,4.1s1.9,1.5,3.3,1.5c5.6,0,10.7-5.2,15.2-15.8
		c0.4-1,1-1.4,1.6-1.3c0.2,0.1,0.4,0.2,0.4,0.5s-0.7,1.9-2.1,4.8s-2.8,5.4-4.2,7.2c-3.1,4.3-7,6.4-11.6,6.4c-2.5,0-4.5-0.8-6.3-2.4
		s-2.6-3.8-2.6-6.5s0.7-5.7,2-8.8s3.1-6,5.4-8.7c2.3-2.7,4.9-4.6,7.8-5.8c1.4-0.6,2.8-0.9,4-0.9s2.5,0.4,3.6,1.1
		c1,0.9,1.6,1.8,1.6,2.9c0,3.7-2.2,7.2-6.6,10.6c-1.4,1-3.3,2-5.7,2.8C355,59.9,353.2,60.3,351.9,60.3L351.9,60.3z M367.4,45.6
		c0-1.2-0.5-1.8-1.5-1.8c-1.7,0-4.3,2.1-7.8,6.4c-2.1,2.6-3.9,5.5-5.5,8.7c1,0,2.6-0.4,4.6-1.1s3.7-1.7,5.2-3
		C365.7,51.8,367.4,48.8,367.4,45.6L367.4,45.6z"/>
	<path class="st0" d="M389.9,69.2c0,2,0.8,2.9,2.4,2.9c2.9,0,6.7-4.8,11.5-14.5c0.2-0.4,0.4-0.7,0.5-1.1s0.4-0.6,0.7-0.7
		c0.3-0.1,0.6,0,0.7,0.2s0.1,0.7-0.2,1.3c-4.9,11.4-9.9,17.1-14.9,17.1c-1.7,0-3-0.7-4-2.2c-1-1.5-1.5-2.9-1.5-4.4s0.1-2.8,0.5-4
		c-3.6,5.9-6.6,9.2-9.2,10c-0.7,0.3-1.5,0.5-2.2,0.5s-1.4-0.1-2.1-0.3c-3-0.8-4.5-3.2-4.5-7.2c0-2.7,0.7-5.7,2.1-9
		c1.4-3.3,3.3-6.4,5.9-9.4c2.5-3,5.6-5,9.1-6.1c1.3-0.4,2.8-0.7,4.6-0.7s3.7,0.5,5.9,1.7c4.2-7.9,7.7-15.1,10.7-21.8
		c0.9-2,1.7-3.3,2.5-3.9c0.8-0.6,1.6-0.9,2.3-0.9h1.3c0.1,0,0.7,0.1,1.8,0.2s1.8,0.2,2.4,0.1c-1.4,1.3-5.2,7.6-11.2,18.8
		c-7.7,14.4-12.4,24-14,28.8C390.3,66.5,390,68,389.9,69.2L389.9,69.2z M394.5,45c-0.8-0.8-1.9-1.2-3.4-1.2s-3.5,1.1-6,3.2
		c-4.1,3.4-7.5,7.7-10.2,12.7c-1.8,3.3-2.7,6-2.7,8.2c0,1,0.2,1.9,0.6,2.7c0.4,0.8,1,1.2,1.9,1.2c2.1,0,4.7-2.2,7.7-6.4
		C385.5,61,389.5,54.2,394.5,45L394.5,45z"/>
</g>
<path class="st0" d="M225.6,56.7l-1.4-0.4l2.2-3.7c2.2-4.3,4.7-8.8,8.2-12.4c3.1-3.1,8.8-6.3,13-7.5l-0.2,1.6
	c-2.2,0.2-9.2,3.6-12.1,6.6c-3.4,3.5-5.7,7.9-7.9,12.2L225.6,56.7L225.6,56.7z"/>
</svg>
